<svg xmlns="http://www.w3.org/2000/svg" xmlns:xlink="http://www.w3.org/1999/xlink" xmlns:lucid="lucid" width="1362.19" height="187.88"><g transform="translate(11 -8.325344952796172)" lucid:page-tab-id="0_0"><path d="M1141.05 90.3l18.95 13.3-18.95 13.3-18.95-13.3zM880 93.37h20v20.46h-20z" stroke="#000" stroke-opacity="0" stroke-width="2" fill="#0c7cba"/><path d="M1147.4 90.86v-48.7c0-5.58-4.76-10.16-10.36-10.16H890.08c-5.6 0-10.08 4.58-10.08 10.17v122.87c0 5.58 4.48 10.16 10.08 10.16h246.96c5.6 0 10.36-4.58 10.36-10.16v-48.7c7 0 12.6-5.72 12.6-12.74 0-7.02-5.6-12.74-12.6-12.74zm-255.08 20.47c-3.92 0-7.28-3.3-7.28-7.3s3.36-7.3 7.28-7.3c3.92 0 7 3.3 7 7.3s-3.08 7.3-7 7.3zm255.36 0c-3.92 0-7-3.3-7-7.3s3.08-7.3 7-7.3 7.28 3.3 7.28 7.3-3.36 7.3-7.28 7.3z" stroke="#000" stroke-opacity="0" stroke-width=".89" fill="#fff" filter="url(#a)"/><path d="M931.4 28.33h170.54v106H931.4z" stroke="#000" stroke-opacity="0" stroke-width="2" fill="#fff" fill-opacity="0"/><use xlink:href="#b" transform="matrix(1,0,0,1,936.4049077529303,33.32534495279617) translate(5 56)"/><use xlink:href="#c" transform="matrix(1,0,0,1,936.4049077529303,33.32534495279617) translate(133.77777777777777 56)"/><path d="M721.05 90.3L740 103.6l-18.95 13.3-18.95-13.3zM460 93.37h20v20.46h-20z" stroke="#000" stroke-opacity="0" stroke-width="2" fill="#0c7cba"/><path d="M727.4 90.86v-48.7c0-5.58-4.76-10.16-10.36-10.16H470.08c-5.6 0-10.08 4.58-10.08 10.17v122.87c0 5.58 4.48 10.16 10.08 10.16h246.96c5.6 0 10.36-4.58 10.36-10.16v-48.7c7 0 12.6-5.72 12.6-12.74 0-7.02-5.6-12.74-12.6-12.74zm-255.08 20.47c-3.92 0-7.28-3.3-7.28-7.3s3.36-7.3 7.28-7.3c3.92 0 7 3.3 7 7.3s-3.08 7.3-7 7.3zm255.36 0c-3.92 0-7-3.3-7-7.3s3.08-7.3 7-7.3 7.28 3.3 7.28 7.3-3.36 7.3-7.28 7.3z" stroke="#000" stroke-opacity="0" stroke-width=".89" fill="#fff" filter="url(#a)"/><path d="M511.4 51.1h170.54v60.46H511.4z" stroke="#000" stroke-opacity="0" stroke-width="2" fill="#fff" fill-opacity="0"/><use xlink:href="#b" transform="matrix(1,0,0,1,516.4049077529301,56.09368191721158) translate(5 33.5)"/><use xlink:href="#d" transform="matrix(1,0,0,1,516.4049077529301,56.09368191721158) translate(133.77777777777777 33.5)"/><path d="M301.05 90.3L320 103.6l-18.95 13.3-18.95-13.3zM40 93.37h20v20.46H40z" stroke="#000" stroke-opacity="0" stroke-width="2" fill="#0c7cba"/><path d="M307.4 90.86v-48.7c0-5.58-4.76-10.16-10.36-10.16H50.08C44.48 32 40 36.58 40 42.17v122.87c0 5.58 4.48 10.16 10.08 10.16h246.96c5.6 0 10.36-4.58 10.36-10.16v-48.7c7 0 12.6-5.72 12.6-12.74 0-7.02-5.6-12.74-12.6-12.74zM52.32 111.33c-3.92 0-7.28-3.3-7.28-7.3s3.36-7.3 7.28-7.3c3.92 0 7 3.3 7 7.3s-3.08 7.3-7 7.3zm255.36 0c-3.92 0-7-3.3-7-7.3s3.08-7.3 7-7.3 7.28 3.3 7.28 7.3-3.36 7.3-7.28 7.3z" stroke="#000" stroke-opacity="0" stroke-width=".89" fill="#fff" filter="url(#a)"/><path d="M91.4 51.1h170.54v60.46H91.4z" stroke="#000" stroke-opacity="0" stroke-width="2" fill="#fff" fill-opacity="0"/><use xlink:href="#b" transform="matrix(1,0,0,1,96.40490775292977,56.09368191721158) translate(5 33.5)"/><use xlink:href="#e" transform="matrix(1,0,0,1,96.40490775292977,56.09368191721158) translate(133.77777777777777 33.5)"/><path d="M311.05 103.83c0 5.52-4.48 10-10 10s-10-4.48-10-10 4.48-10 10-10 10 4.48 10 10z" stroke="#000" stroke-opacity="0" stroke-width=".5" fill-opacity="0"/><path d="M311.05 103.83h160.2" stroke="#0c7cba" stroke-width="2" fill="none"/><path d="M311.05 104.83h-.16l.15-1-.13-1h.13zM471.24 103.83l.17 1h-.16v-2h.14z" fill="#0c7cba"/><path d="M491.24 103.83c0 5.52-4.47 10-10 10-5.52 0-10-4.48-10-10s4.48-10 10-10c5.53 0 10 4.48 10 10z" stroke="#000" stroke-opacity="0" stroke-width=".5" fill-opacity="0"/><path d="M729.7 103.83h160.18M729.7 103.83h-3M889.88 103.83h3M1150.3 103.83h151.39M1150.3 103.83h-3" stroke="#0c7cba" stroke-width="2" fill="none"/><path d="M1316.96 103.83l-14.27 4.64V99.2z" stroke="#0c7cba" stroke-width="2" fill="#0c7cba"/><path d="M0 103.83h49.88" stroke="#0c7cba" stroke-width="2" fill="none"/><defs><filter id="a" filterUnits="objectBoundingBox" x="-.04" y="-.03" width="1.07" height="1.14"><feOffset result="offOut" in="SourceAlpha" dy="6"/><feGaussianBlur result="blurOut" in="offOut" stdDeviation="5"/><feColorMatrix result="colorOut" in="blurOut" values="0 0 0 0 0 0 0 0 0 0 0 0 0 0 0 0 0 0 0.5019607843137255 0"/><feBlend in="SourceGraphic" in2="colorOut"/></filter><path d="M140-251c81 0 123 46 123 126C263-46 219 4 140 4 59 4 17-45 17-125s42-126 123-126zm0 227c63 0 89-41 89-101s-29-99-89-99c-61 0-89 39-89 99S79-25 140-24" id="f"/><path d="M115-194c53 0 69 39 70 98 0 66-23 100-70 100C84 3 66-7 56-30L54 0H23l1-261h32v101c10-23 28-34 59-34zm-8 174c40 0 45-34 45-75 0-40-5-75-45-74-42 0-51 32-51 76 0 43 10 73 51 73" id="g"/><path d="M24-231v-30h32v30H24zM-9 49c24 4 33-6 33-30v-209h32V24c2 40-23 58-65 49V49" id="h"/><path d="M100-194c63 0 86 42 84 106H49c0 40 14 67 53 68 26 1 43-12 49-29l28 8c-11 28-37 45-77 45C44 4 14-33 15-96c1-61 26-98 85-98zm52 81c6-60-76-77-97-28-3 7-6 17-6 28h103" id="i"/><path d="M59-47c-2 24 18 29 38 22v24C64 9 27 4 27-40v-127H5v-23h24l9-43h21v43h35v23H59v120" id="j"/><path d="M100-194c62-1 85 37 85 99 1 63-27 99-86 99S16-35 15-95c0-66 28-99 85-99zM99-20c44 1 53-31 53-75 0-43-8-75-51-75s-53 32-53 75 10 74 51 75" id="k"/><g id="b"><use transform="matrix(0.1111111111111111,0,0,0.1111111111111111,0,0)" xlink:href="#f"/><use transform="matrix(0.1111111111111111,0,0,0.1111111111111111,31.11111111111111,0)" xlink:href="#g"/><use transform="matrix(0.1111111111111111,0,0,0.1111111111111111,53.33333333333333,0)" xlink:href="#h"/><use transform="matrix(0.1111111111111111,0,0,0.1111111111111111,62.11111111111111,0)" xlink:href="#i"/><use transform="matrix(0.1111111111111111,0,0,0.1111111111111111,84.33333333333333,0)" xlink:href="#j"/><use transform="matrix(0.1111111111111111,0,0,0.1111111111111111,95.44444444444444,0)" xlink:href="#k"/></g><path d="M126-127c33 6 58 20 58 59 0 88-139 92-164 29-3-8-5-16-6-25l32-3c6 27 21 44 54 44 32 0 52-15 52-46 0-38-36-46-79-43v-28c39 1 72-4 72-42 0-27-17-43-46-43-28 0-47 15-49 41l-32-3c6-42 35-63 81-64 48-1 79 21 79 65 0 36-21 52-52 59" id="l"/><use transform="matrix(0.1111111111111111,0,0,0.1111111111111111,0,0)" xlink:href="#l" id="c"/><path d="M101-251c82-7 93 87 43 132L82-64C71-53 59-42 53-27h129V0H18c2-99 128-94 128-182 0-28-16-43-45-43s-46 15-49 41l-32-3c6-41 34-60 81-64" id="m"/><use transform="matrix(0.1111111111111111,0,0,0.1111111111111111,0,0)" xlink:href="#m" id="d"/><path d="M27 0v-27h64v-190l-56 39v-29l58-41h29v221h61V0H27" id="n"/><use transform="matrix(0.1111111111111111,0,0,0.1111111111111111,0,0)" xlink:href="#n" id="e"/></defs></g></svg>